<svg width="830" height="150" xmlns="http://www.w3.org/2000/svg" xmlns:xlink="http://www.w3.org/1999/xlink" xml:space="preserve" version="1.1">
    <defs>
        <linearGradient id="linearGradient1">
            <stop stop-color="#f7aaad" id="stop1" offset="0" />
            <stop stop-color="#b8272c" id="stop2" offset="1" />
        </linearGradient>
        <linearGradient y2="0.4637" x2="1.00053" y1="0.4637" x1="-0.00052" id="linearGradient2" xlink:href="#linearGradient1" />
    </defs>
    <g>
        <rect height="150" width="830" y="0" x="0" stroke-width="0.06975px" stroke="null" fill="url(#linearGradient2)" />
        <path stroke="null" stroke-width="0.06975px" fill="#ffffff" d="m413.34954,34.83564c-66.10235,0.26095 -70.58469,63.86984 -70.92246,64.54538c0,0 9.95079,-49.41128 59.36203,-48.72501c22.00822,0.30565 36.37781,9.94234 45.56311,21.44138l24.99733,-9.65466c-10.21636,-14.43894 -27.28562,-26.82438 -55.8055,-27.57093c-1.08053,-0.02831 -2.14526,-0.04038 -3.19451,-0.03621l0,0.00005l0.00001,0.00001zm62.31827,33.1776l-61.49889,23.75372a12.00971,12.00971 0 0 0 -3.80135,-0.62119a12.00971,12.00971 0 0 0 -12.00975,12.00971a12.00971,12.00971 0 0 0 12.00975,12.00975a12.00971,12.00971 0 0 0 11.3165,-8.07176l53.98374,-39.08022zm3.16282,5.6016l-21.53229,15.58778c3.60913,8.81847 4.88265,16.63292 4.88265,20.12932c22.98994,-0.34313 25.39192,-0.34319 25.39192,-0.34319c0,0 -0.22927,-17.42086 -8.74228,-35.37391l-0.00001,0z" />
    </g>
</svg>
